<svg xmlns="http://www.w3.org/2000/svg" version="1.1" xmlns:xlink="http://www.w3.org/1999/xlink" xmlns:svgjs="http://svgjs.dev/svgjs" width="1500" height="1500" viewBox="0 0 1500 1500"><rect width="1500" height="1500" fill="#000000"></rect><g transform="matrix(0.6666666666666666,0,0,0.6666666666666666,249.39393939393938,487.2593841084259)"><svg viewBox="0 0 396 208" data-background-color="#243b49" preserveAspectRatio="xMidYMid meet" height="787" width="1500" xmlns="http://www.w3.org/2000/svg" xmlns:xlink="http://www.w3.org/1999/xlink"><g id="tight-bounds" transform="matrix(1,0,0,1,0.2400000000000091,0.16146398751098445)"><svg viewBox="0 0 395.52 207.67707202497803" height="207.67707202497803" width="395.52"><g><svg viewBox="0 0 470.79122912634557 247.20000000000002" height="207.67707202497803" width="395.52"><g><svg viewBox="0 0 254.90311614730874 247.20000000000002" height="247.20000000000002" width="254.90311614730874"><g id="textblocktransform"><svg viewBox="0 0 254.90311614730874 247.20000000000002" height="247.20000000000002" width="254.90311614730874" id="textblock"><g><svg viewBox="0 0 254.90311614730874 247.20000000000002" height="247.20000000000002" width="254.90311614730874"><g transform="matrix(1,0,0,1,0,0)"><svg width="254.90311614730874" viewBox="2.55 -35.3 36.400000000000006 35.3" height="247.20000000000002" data-palette-color="#5d9cb7"><path d="M38.95-2.2L38.95 0 24.8 0 24.8-2.2 29.35-3.85 29.35-16.3 12.15-16.3 12.15-3.85 16.7-2.2 16.7 0 2.55 0 2.55-2.2 7.1-3.85 7.1-31.45 2.55-33.1 2.55-35.3 16.7-35.3 16.7-33.1 12.15-31.45 12.15-20.15 29.35-20.15 29.35-31.45 24.8-33.1 24.8-35.3 38.95-35.3 38.95-33.1 34.4-31.45 34.4-3.85 38.95-2.2Z" opacity="1" transform="matrix(1,0,0,1,0,0)" fill="#ffffff" class="wordmark-text-0" data-fill-palette-color="primary" id="text-0"></path></svg></g></svg></g></svg></g></svg></g><g transform="matrix(1,0,0,1,313.26110334730873,44.834937110481604)"><svg viewBox="0 0 157.5301257790368 157.5301257790368" height="157.5301257790368" width="157.5301257790368"><g data-palette-color="#4db99e"><rect width="43.05823437960339" height="157.5301257790368" fill="#ffffff" stroke="transparent" data-fill-palette-color="accent" x="0" fill-opacity="1"></rect><rect width="43.05823437960339" height="157.5301257790368" fill="#ffffff" stroke="transparent" data-fill-palette-color="accent" x="52.5100419263456" fill-opacity="0.75"></rect><rect width="43.05823437960339" height="157.5301257790368" fill="#ffffff" stroke="transparent" data-fill-palette-color="accent" x="105.0200838526912" fill-opacity="0.5"></rect></g></svg></g></svg></g><defs></defs></svg><rect width="395.52" height="207.67707202497803" fill="none" stroke="none" visibility="hidden"></rect></g></svg></g></svg>