<svg xmlns="http://www.w3.org/2000/svg" version="1.1" xmlns:xlink="http://www.w3.org/1999/xlink" xmlns:svgjs="http://svgjs.dev/svgjs" width="1500" height="238" viewBox="0 0 1500 238"><g transform="matrix(1,0,0,1,-0.9090909090909918,-1.7919968848276397)"><svg viewBox="0 0 396 63" data-background-color="#575c5f" preserveAspectRatio="xMidYMid meet" height="238" width="1500" xmlns="http://www.w3.org/2000/svg" xmlns:xlink="http://www.w3.org/1999/xlink"><g id="tight-bounds" transform="matrix(1,0,0,1,0.2400000000000091,0.47435211657202103)"><svg viewBox="0 0 395.52 62.051295766855965" height="62.051295766855965" width="395.52"><g><svg viewBox="0 0 507.54546269747016 79.62645029572836" height="62.051295766855965" width="395.52"><g><rect width="5.195944618064753" height="57.904907776560776" x="93.2275688174558" y="10.860771259583792" fill="#dedad7" opacity="1" stroke-width="0" stroke="transparent" fill-opacity="1" class="rect-yte-0" data-fill-palette-color="primary" rx="1%" id="yte-0" data-palette-color="#dedad7"></rect></g><g transform="matrix(1,0,0,1,112.02546269747018,11.004813318729465)"><svg viewBox="0 0 395.52 57.61682365826943" height="57.61682365826943" width="395.52"><g id="textblocktransform"><svg viewBox="0 0 395.52 57.61682365826943" height="57.61682365826943" width="395.52" id="textblock"><g><svg viewBox="0 0 395.52 57.61682365826943" height="57.61682365826943" width="395.52"><g transform="matrix(1,0,0,1,0,0)"><svg width="395.52" viewBox="1.65 -37.65 315.24 46.55" height="57.61682365826943" data-palette-color="#dedad7"><g class="wordmark-text-0" data-fill-palette-color="primary" id="text-0"><path d="M26.2-8.8L6.85-8.8 6.85-13.3 26.2-13.3 26.2-8.8ZM1.65 0L12.45-34.9 20.05-34.9 30.85 0 25.4 0 18.35-23.1 16.25-30.75 14.15-23.05 7 0 1.65 0ZM50.4-28.1L50.4-28.1Q54.1-28.1 56.87-26.28 59.65-24.45 61.25-21.2 62.85-17.95 62.85-13.75L62.85-13.75Q62.85-9.6 61.25-6.35 59.65-3.1 56.87-1.25 54.1 0.6 50.4 0.6L50.4 0.6Q47.55 0.6 45.17-0.63 42.8-1.85 41.35-3.85L41.35-3.85 41.2 0 36.4 0 36.4-36.75 41.45-36.75 41.45-23.85Q42.9-25.85 45.25-26.98 47.6-28.1 50.4-28.1ZM49.3-3.65L49.3-3.65Q51.85-3.65 53.75-4.95 55.65-6.25 56.7-8.53 57.75-10.8 57.75-13.75L57.75-13.75Q57.75-16.75 56.7-19.03 55.65-21.3 53.75-22.58 51.85-23.85 49.3-23.85L49.3-23.85Q46.65-23.85 44.55-22.38 42.45-20.9 41.45-18.25L41.45-18.25 41.45-9.3Q42.45-6.7 44.55-5.18 46.65-3.65 49.3-3.65ZM68.55-27.5L73.59-27.5 73.59-10.15Q73.59-7.25 75.25-5.48 76.9-3.7 79.55-3.7L79.55-3.7Q82.59-3.7 84.97-5.93 87.34-8.15 88.75-12.85L88.75-12.85 89.55-7.2Q88-3.3 85.07-1.35 82.15 0.6 78.7 0.6L78.7 0.6Q75.59 0.6 73.32-0.73 71.05-2.05 69.8-4.4 68.55-6.75 68.55-9.95L68.55-9.95 68.55-27.5ZM88.15-27.5L93.2-27.5 93.2 0 88.4 0 88.15-6.2 88.15-27.5Z" fill="#dedad7" data-fill-palette-color="primary"></path><path d="M154.95 0L149.65 0 149.65-34.9 154.95-34.9 154.95 0ZM134.3 0L129 0 129-34.9 134.3-34.9 134.3 0ZM150.35-15.85L133.55-15.85 133.55-20.35 150.35-20.35 150.35-15.85ZM174.75 0.6L174.75 0.6Q170.5 0.6 167.4-1.13 164.29-2.85 162.65-6.08 161-9.3 161-13.8L161-13.8Q161-18.3 162.67-21.5 164.35-24.7 167.47-26.4 170.6-28.1 174.95-28.1L174.95-28.1Q181.6-28.1 184.85-24.43 188.1-20.75 187.7-14.35L187.7-14.35 165-14.35 165.04-18.15 182.54-18.1Q182.35-20.75 180.25-22.35 178.15-23.95 174.95-23.95L174.95-23.95Q170.65-23.95 168.35-21.25 166.04-18.55 166.04-13.6L166.04-13.6Q166.04-10.65 167.07-8.38 168.1-6.1 170.04-4.85 172-3.6 174.75-3.6L174.75-3.6Q178-3.6 180.17-5.15 182.35-6.7 182.85-9.35L182.85-9.35 187.9-9.35Q187.25-4.7 183.75-2.05 180.25 0.6 174.75 0.6ZM209.44-27.5L214.49-27.5 214.49 0.35Q214.49 2.9 213.57 4.83 212.64 6.75 210.84 7.83 209.04 8.9 206.34 8.9L206.34 8.9 195.09 8.9 195.09 4.8 204.84 4.8Q207.04 4.8 208.24 3.93 209.44 3.05 209.44 0.5L209.44 0.5 209.44-27.5ZM211.94-23.4L202.94-23.4 202.94-27.5 211.94-27.5 211.94-23.4ZM214.79-32.2L209.14-32.2 209.14-37.65 214.79-37.65 214.79-32.2ZM241.99 0L236.94 0 236.94-36.75 241.99-36.75 241.99 0ZM252.19 0L226.79 0 226.79-4.1 252.19-4.1 252.19 0ZM239.44-32.65L230.44-32.65 230.44-36.75 239.44-36.75 239.44-32.65ZM272.24 0.6L272.24 0.6Q267.99 0.6 264.89-1.13 261.79-2.85 260.14-6.08 258.49-9.3 258.49-13.8L258.49-13.8Q258.49-18.3 260.16-21.5 261.84-24.7 264.96-26.4 268.09-28.1 272.44-28.1L272.44-28.1Q279.09-28.1 282.34-24.43 285.59-20.75 285.19-14.35L285.19-14.35 262.49-14.35 262.54-18.15 280.04-18.1Q279.84-20.75 277.74-22.35 275.64-23.95 272.44-23.95L272.44-23.95Q268.14-23.95 265.84-21.25 263.54-18.55 263.54-13.6L263.54-13.6Q263.54-10.65 264.56-8.38 265.59-6.1 267.54-4.85 269.49-3.6 272.24-3.6L272.24-3.6Q275.49-3.6 277.66-5.15 279.84-6.7 280.34-9.35L280.34-9.35 285.39-9.35Q284.74-4.7 281.24-2.05 277.74 0.6 272.24 0.6ZM316.89 0L311.84 0 311.84-17.3Q311.84-20.25 310.19-22.03 308.54-23.8 305.89-23.8L305.89-23.8Q302.84-23.8 300.46-21.58 298.09-19.35 296.69-14.65L296.69-14.65 295.89-20.25Q297.44-24.2 300.36-26.15 303.29-28.1 306.74-28.1L306.74-28.1Q309.84-28.1 312.11-26.78 314.39-25.45 315.64-23.08 316.89-20.7 316.89-17.5L316.89-17.5 316.89 0ZM297.29 0L292.24 0 292.24-36.8 297.29-36.8 297.29 0Z" fill="#b4bfc5" data-fill-palette-color="accent"></path></g></svg></g></svg></g></svg></g></svg></g><g><svg viewBox="0 0 79.62561955550619 79.62645029572836" height="79.62645029572836" width="79.62561955550619"><g><svg xmlns="http://www.w3.org/2000/svg" xmlns:xlink="http://www.w3.org/1999/xlink" version="1.1" x="0" y="0" viewBox="2.151 2.15 95.849 95.85" enable-background="new 0 0 100 100" xml:space="preserve" height="79.62645029572836" width="79.62561955550619" class="icon-icon-0" data-fill-palette-color="accent" id="icon-0"><g fill="#b4bfc5" data-fill-palette-color="accent"><path fill="#b4bfc5" d="M98 50.075C98 76.543 76.542 98 50.075 98 23.606 98 2.151 76.543 2.151 50.075S23.607 2.15 50.075 2.15C76.542 2.15 98 23.607 98 50.075M49.797 6.185C25.424 6.185 5.664 25.943 5.664 50.316 5.664 74.691 25.424 94.449 49.797 94.449S93.93 74.691 93.93 50.316C93.93 25.943 74.17 6.185 49.797 6.185" data-fill-palette-color="accent"></path><path fill="#b4bfc5" d="M90.862 50.438C90.862 73.051 72.531 91.383 49.918 91.383S8.973 73.051 8.973 50.438C8.973 27.824 27.305 9.493 49.918 9.493S90.862 27.825 90.862 50.438M21.963 34.746L13.25 38.458 17.93 47.01 11.152 54.433 19.22 60.403 16.154 69.601 25.835 71.859 26.966 81.542 36.809 79.766 41.488 87.997 49.717 82.186 57.784 87.997 62.627 79.604 72.308 81.863 73.439 71.534 83.283 69.763 80.216 60.242 88.283 54.433 81.829 47.171 86.348 38.296 77.311 34.423 78.44 24.58 68.274 24.418 65.37 14.898 56.173 18.77 49.719 11.67 43.265 18.932 34.068 14.898 30.84 24.418 20.997 24.095z" data-fill-palette-color="accent"></path><path fill="#b4bfc5" d="M76.019 60.886L78.117 66.695 71.985 67.825 61.819 59.919 60.528 61.371 69.404 70.89 69.082 76.863 63.111 75.409 57.001 63.82C56.326 64.19 55.621 64.513 54.89 64.783L59.561 77.345 56.332 82.186 51.977 78.797 50.712 65.677C50.33 65.708 49.943 65.727 49.556 65.727S48.786 65.708 48.406 65.68L47.782 78.958 42.941 82.509 39.875 77.507 44.223 64.784A15.6 15.6 0 0 1 42.176 63.86L36.324 75.407 30.515 76.699 29.869 71.213 38.782 61.362A16 16 0 0 1 37.212 59.593L27.127 67.661 21.318 66.694 22.931 61.046 35.194 56.044H35.195A15 15 0 0 1 34.447 53.65L21.801 56.85 17.283 53.462 20.832 49.427H34.085C34.117 48.803 34.19 48.187 34.294 47.584L34.226 47.492 21.155 44.587 18.735 40.23 24.06 37.648 35.724 43.259C35.988 42.737 36.279 42.232 36.599 41.745L26.158 34.1 25.674 28.453H31.483L39.389 37.974S39.599 38.048 39.887 38.139C40.365 37.756 40.865 37.401 41.387 37.076 41.273 36.685 41.165 36.359 41.165 36.359L34.71 26.354 36.163 20.545 41.488 22.643 45.734 35.221C46.265 35.087 46.807 34.981 47.359 34.904L46.005 21.837 49.717 17.803 53.429 21.675 52.007 34.94C52.653 35.043 53.281 35.186 53.898 35.366L57.463 22.965 62.949 20.222 64.886 26.193 58.107 36.681 59.883 38.295 68.113 28.613H73.923L73.438 34.1 62.949 41.361 63.11 42.653 63.094 42.711C63.24 42.975 63.382 43.243 63.517 43.516 65.267 42.725 75.373 37.812 75.373 37.812L80.698 40.394S78.762 45.074 78.278 45.074C77.852 45.074 67.381 47.059 64.807 47.548 64.933 48.265 65.01 48.999 65.034 49.746L78.437 49.592 82.149 53.789 77.468 57.176 64.618 53.845A15 15 0 0 1 63.891 56.101zM49.879 38.618A2.1 2.1 0 0 0 49.879 42.815 2.098 2.098 0 0 0 49.879 38.618M56.494 41.361A2.098 2.098 0 1 0 56.496 45.557 2.098 2.098 0 0 0 56.494 41.361M59.399 48.138A2.099 2.099 0 1 0 59.402 52.335 2.099 2.099 0 0 0 59.4 48.138M56.655 54.916A2.097 2.097 0 1 0 56.655 59.11 2.098 2.098 0 1 0 56.655 54.916M49.879 57.98A2.099 2.099 0 1 0 49.88 62.177 2.099 2.099 0 0 0 49.88 57.98M43.263 54.916A2.097 2.097 0 1 0 43.263 59.11 2.096 2.096 0 1 0 43.263 54.916M40.197 48.138A2.098 2.098 0 1 0 40.199 52.334 2.098 2.098 0 0 0 40.197 48.138M42.779 41.361A2.098 2.098 0 1 0 42.78 45.56 2.098 2.098 0 0 0 42.78 41.36M49.717 47.494A2.74 2.74 0 0 0 46.975 50.237 2.74 2.74 0 0 0 49.717 52.978 2.741 2.741 0 1 0 49.717 47.494" data-fill-palette-color="accent"></path></g></svg></g></svg></g></svg></g><defs></defs></svg><rect width="395.52" height="62.051295766855965" fill="none" stroke="none" visibility="hidden"></rect></g></svg></g></svg>